# xmcd
#
# Track frame offsets: 
#        150
#        18395
#        40623
#        61922
#        79809
#        98314
#        118387
#        139814
#        159292
#        178002
#        199004
#        236702
#
# Disc length: 3160 seconds
#
# Revision: 0
# Processed by: cddbd v1.5.2PL0 Copyright (c) Steve Scherf et al.
# Submitted via: ExactAudioCopy v0.99pb3
#
DISCID=940c560c
DTITLE=Robert Cray Band and The Memphis Horns - Midnight Stroll
DYEAR=1990
DGENRE=Blues
TTITLE0=Forecast (Calls For Pain)
TTITLE1=These Things
TTITLE2=My Problem
TTITLE3=Labor Of Love
TTITLE4=Bouncin' Back
TTITLE5=Consequences
TTITLE6=Things You Do To Me
TTITLE7=Walk Around Time
TTITLE8=Move A Mountain
TTITLE9=Holdin' Court
TTITLE10=Midnight Stroll
TTITLE11=Robert Cray Band and The Memphis Horns - Midnight Stroll
EXTD=
EXTT0=
EXTT1=
EXTT2=
EXTT3=
EXTT4=
EXTT5=
EXTT6=
EXTT7=
EXTT8=
EXTT9=
EXTT10=
EXTT11=
PLAYORDER=
